# xmcd
#
# Track frame offsets: 
#        150
#        21730
#        41465
#        93928
#        105363
#        127480
#        145755
#        182262
#        202352
#        222475
#
# Disc length: 3704 seconds
#
# Revision: 7
# Processed by: cddbd v1.5.2PL0 Copyright (c) Steve Scherf et al.
# Submitted via: ExactAudioCopy v0.95b4
#
DISCID=970e760a
DTITLE=Stevie Ray Vaughan - Live Performance
DYEAR=1994
DGENRE=Blues
TTITLE0=Scuttle Buttin'
TTITLE1=Testify
TTITLE2=Voodoo Chile (Slight Return)
TTITLE3=Honey Bee
TTITLE4=Couldn't Stand The Weather
TTITLE5=Cold Shot
TTITLE6=Texas Flood
TTITLE7=Pride And Joy
TTITLE8=Rude Mood
TTITLE9=Little Wing_Third Stone From The Sun
EXTD=
EXTT0=
EXTT1=
EXTT2=
EXTT3=
EXTT4=
EXTT5=
EXTT6=
EXTT7=
EXTT8=
EXTT9=
PLAYORDER=
